<svg width="298" height="298" viewBox="0 0 298 298" fill="none" xmlns="http://www.w3.org/2000/svg">
<rect width="298" height="298" rx="20" fill="#E8C300"/>
<path d="M91.2122 209.644C82.2251 209.644 73.9503 208.219 66.3879 205.37C58.9351 202.41 52.4139 198.3 46.8243 193.04C41.2348 187.669 36.9056 181.367 33.8368 174.134C30.768 166.9 29.2336 159.009 29.2336 150.46C29.2336 141.911 30.768 134.02 33.8368 126.787C36.9056 119.553 41.2348 113.306 46.8243 108.045C52.5235 102.675 59.1543 98.5647 66.7167 95.7151C74.2791 92.7559 82.5538 91.2763 91.541 91.2763C101.295 91.2763 110.063 92.8655 117.845 96.0439C125.736 99.2223 132.367 103.88 137.737 110.018L124.257 123.17C119.763 118.676 114.886 115.388 109.625 113.306C104.474 111.114 98.7746 110.018 92.5274 110.018C86.4994 110.018 80.9099 111.004 75.7587 112.977C70.6075 114.95 66.1687 117.745 62.4423 121.361C58.7159 124.978 55.8115 129.253 53.7291 134.185C51.7563 139.117 50.7699 144.542 50.7699 150.46C50.7699 156.269 51.7563 161.639 53.7291 166.571C55.8115 171.503 58.7159 175.832 62.4423 179.559C66.1687 183.176 70.5527 185.97 75.5943 187.943C80.6359 189.916 86.2254 190.902 92.363 190.902C98.0622 190.902 103.542 190.026 108.803 188.272C114.173 186.409 119.27 183.34 124.092 179.066L136.258 195.012C130.23 199.835 123.215 203.506 115.215 206.027C107.323 208.438 99.3226 209.644 91.2122 209.644ZM116.037 192.218V149.145H136.258V195.012L116.037 192.218ZM218.204 209.644C209.217 209.644 200.943 208.219 193.38 205.37C185.927 202.41 179.406 198.3 173.817 193.04C168.227 187.669 163.898 181.367 160.829 174.134C157.76 166.9 156.226 159.009 156.226 150.46C156.226 141.911 157.76 134.02 160.829 126.787C163.898 119.553 168.227 113.306 173.817 108.045C179.516 102.675 186.147 98.5647 193.709 95.7151C201.271 92.7559 209.546 91.2763 218.533 91.2763C228.288 91.2763 237.056 92.8655 244.837 96.0439C252.728 99.2223 259.359 103.88 264.73 110.018L251.249 123.17C246.755 118.676 241.878 115.388 236.617 113.306C231.466 111.114 225.767 110.018 219.52 110.018C213.492 110.018 207.902 111.004 202.751 112.977C197.6 114.95 193.161 117.745 189.435 121.361C185.708 124.978 182.804 129.253 180.721 134.185C178.749 139.117 177.762 144.542 177.762 150.46C177.762 156.269 178.749 161.639 180.721 166.571C182.804 171.503 185.708 175.832 189.435 179.559C193.161 183.176 197.545 185.97 202.587 187.943C207.628 189.916 213.218 190.902 219.355 190.902C225.054 190.902 230.534 190.026 235.795 188.272C241.166 186.409 246.262 183.34 251.084 179.066L263.25 195.012C257.222 199.835 250.208 203.506 242.207 206.027C234.316 208.438 226.315 209.644 218.204 209.644ZM243.029 192.218V149.145H263.25V195.012L243.029 192.218Z" fill="#F1F1F1"/>
</svg>
