<svg width="120" height="119" viewBox="0 0 120 119" fill="none" xmlns="http://www.w3.org/2000/svg">
<path d="M21.2903 67.7419V39.149C26.9579 36.1277 30.9677 28.8329 30.9677 20.3226C30.9677 9.11613 24.0218 0 15.4839 0C6.94597 0 0 9.11613 0 20.3226C0 28.8387 4.00984 36.1277 9.67742 39.149V67.7419C9.1641 67.7419 8.6718 67.9458 8.30883 68.3088C7.94585 68.6718 7.74193 69.1641 7.74193 69.6774V114.194C7.74193 114.707 7.94585 115.199 8.30883 115.562C8.6718 115.925 9.1641 116.129 9.67742 116.129H21.2903C21.8036 116.129 22.2959 115.925 22.6589 115.562C23.0219 115.199 23.2258 114.707 23.2258 114.194V69.6774C23.2258 69.1641 23.0219 68.6718 22.6589 68.3088C22.2959 67.9458 21.8036 67.7419 21.2903 67.7419ZM3.87097 20.3226C3.87097 11.251 9.07911 3.87097 15.4839 3.87097C21.8886 3.87097 27.0968 11.251 27.0968 20.3226C27.0968 29.3942 21.8886 36.7742 15.4839 36.7742C9.07911 36.7742 3.87097 29.3942 3.87097 20.3226ZM13.5484 40.6452H17.4194V67.7419H13.5484V40.6452ZM19.3548 112.258H11.6129V71.6129H19.3548V112.258Z" fill="white"/>
<path d="M118.064 1.93555H112.258C111.745 1.93555 111.252 2.13946 110.889 2.50244C110.526 2.86541 110.323 3.35771 110.323 3.87103V19.3549H108.387V3.87103C108.387 3.35771 108.183 2.86541 107.82 2.50244C107.457 2.13946 106.965 1.93555 106.452 1.93555H100.645C100.132 1.93555 99.6395 2.13946 99.2765 2.50244C98.9136 2.86541 98.7096 3.35771 98.7096 3.87103V19.3549H96.7742V3.87103C96.7742 3.35771 96.5702 2.86541 96.2073 2.50244C95.8443 2.13946 95.352 1.93555 94.8387 1.93555H89.0322C88.5189 1.93555 88.0266 2.13946 87.6636 2.50244C87.3007 2.86541 87.0967 3.35771 87.0967 3.87103V21.2904C86.9887 24.8231 87.8294 28.3202 89.5313 31.4178C91.2333 34.5153 93.7343 37.1002 96.7742 38.9033V67.742C96.2608 67.742 95.7685 67.9459 95.4056 68.3089C95.0426 68.6719 94.8387 69.1642 94.8387 69.6775V103.136C94.5085 102.936 94.1257 102.838 93.7397 102.857C93.3537 102.875 92.9821 103.009 92.6726 103.24C73.3386 117.844 46.6613 117.844 27.3273 103.24C26.9164 102.931 26.3995 102.797 25.89 102.869C25.3806 102.94 24.9203 103.211 24.6104 103.621C23.9658 104.477 24.1359 105.693 24.9912 106.337C45.6454 121.94 74.1333 121.988 94.8387 106.452V114.194C94.8387 114.707 95.0426 115.199 95.4056 115.562C95.7685 115.925 96.2608 116.129 96.7742 116.129H108.387C108.9 116.129 109.393 115.925 109.756 115.562C110.119 115.199 110.323 114.707 110.323 114.194V69.6775C110.323 69.1642 110.119 68.6719 109.756 68.3089C109.393 67.9459 108.9 67.742 108.387 67.742V39.788C115.106 37.3544 120 29.9812 120 21.2904V3.87103C120 3.35771 119.796 2.86541 119.433 2.50244C119.07 2.13946 118.578 1.93555 118.064 1.93555ZM106.452 112.258H98.7096V71.613H106.452V112.258ZM104.516 40.6452V67.742H100.645V40.6452H104.516ZM116.129 21.2904C116.129 29.8283 110.485 36.7743 103.548 36.7743C96.6116 36.7743 90.9677 29.8283 90.9677 21.2904V5.80651H92.9032V21.2904C92.9032 21.8037 93.1071 22.296 93.4701 22.659C93.8331 23.022 94.3253 23.2259 94.8387 23.2259H100.645C101.158 23.2259 101.651 23.022 102.014 22.659C102.377 22.296 102.581 21.8037 102.581 21.2904V5.80651H104.516V21.2904C104.516 21.8037 104.72 22.296 105.083 22.659C105.446 23.022 105.938 23.2259 106.452 23.2259H112.258C112.771 23.2259 113.264 23.022 113.627 22.659C113.99 22.296 114.194 21.8037 114.194 21.2904V5.80651H116.129V21.2904Z" fill="white"/>
<path d="M59.9999 27.0967C41.8281 27.0967 27.0967 41.8281 27.0967 59.9999C27.0967 78.1717 41.8281 92.9031 59.9999 92.9031C78.1717 92.9031 92.9031 78.1717 92.9031 59.9999C92.8833 41.8368 78.163 27.1165 59.9999 27.0967ZM59.9999 89.0322C43.9661 89.0322 30.9676 76.0337 30.9676 59.9999C30.9676 43.9661 43.9661 30.9676 59.9999 30.9676C76.0337 30.9676 89.0322 43.9661 89.0322 59.9999C89.0143 76.0262 76.0262 89.0143 59.9999 89.0322Z" fill="white"/>
<path d="M61.9355 34.8387C61.4222 34.8387 60.9299 35.0426 60.5669 35.4056C60.2039 35.7685 60 36.2608 60 36.7742C60 37.2875 60.2039 37.7798 60.5669 38.1428C60.9299 38.5057 61.4222 38.7096 61.9355 38.7096C73.1497 38.7096 81.2903 47.6632 81.2903 60C81.2903 60.5133 81.4942 61.0056 81.8572 61.3686C82.2202 61.7315 82.7125 61.9355 83.2258 61.9355C83.7391 61.9355 84.2314 61.7315 84.5944 61.3686C84.9574 61.0056 85.1613 60.5133 85.1613 60C85.1613 45.4214 75.3931 34.8387 61.9355 34.8387ZM56.8645 34.9935C56.512 34.8452 56.1236 34.8047 55.7481 34.877C55.3726 34.9494 55.027 35.1314 54.7548 35.4C54.4014 35.771 54.2009 36.2618 54.1935 36.7742C54.1964 37.0271 54.249 37.277 54.3484 37.5096C54.4469 37.744 54.5843 37.9599 54.7548 38.1484C54.943 38.3192 55.159 38.4567 55.3935 38.5548C55.6253 38.6568 55.8758 38.7094 56.129 38.7094C56.3823 38.7094 56.6327 38.6568 56.8645 38.5548C57.099 38.4567 57.315 38.3192 57.5032 38.1484C57.6738 37.9599 57.8112 37.744 57.9097 37.5096C58.0089 37.2769 58.0616 37.0275 58.0645 36.7742C58.0571 36.2618 57.8567 35.771 57.5032 35.4C57.315 35.2291 57.099 35.0916 56.8645 34.9935ZM31.5479 13.5484C31.8934 13.5477 32.2324 13.4547 32.5299 13.2791C47.9267 4.24231 66.7817 3.35199 82.9621 10.8965C83.4262 11.1095 83.9557 11.1305 84.4352 10.9549C84.9147 10.7793 85.3054 10.4213 85.5222 9.95899C85.739 9.49663 85.7643 8.96735 85.5926 8.48642C85.4209 8.00549 85.0661 7.61189 84.6056 7.39134C67.2685 -0.698495 47.062 0.254246 30.5632 9.9411C30.1949 10.1558 29.9078 10.4861 29.7463 10.8806C29.5848 11.2752 29.5581 11.712 29.6702 12.1234C29.7829 12.5344 30.0279 12.8967 30.3673 13.1544C30.7068 13.412 31.1218 13.5505 31.5479 13.5484Z" fill="white"/>
</svg>
