<svg width="136" height="136" viewBox="0 0 136 136" fill="none" xmlns="http://www.w3.org/2000/svg">
<path d="M24.129 76.7742V44.3689C30.5523 40.9448 35.0968 32.6773 35.0968 23.0323C35.0968 10.3316 27.2247 0 17.5484 0C7.8721 0 0 10.3316 0 23.0323C0 32.6839 4.54448 40.9448 10.9677 44.3689V76.7742C10.386 76.7742 9.82804 77.0053 9.41667 77.4167C9.0053 77.828 8.77419 78.386 8.77419 78.9677V129.419C8.77419 130.001 9.0053 130.559 9.41667 130.97C9.82804 131.382 10.386 131.613 10.9677 131.613H24.129C24.7108 131.613 25.2687 131.382 25.6801 130.97C26.0915 130.559 26.3226 130.001 26.3226 129.419V78.9677C26.3226 78.386 26.0915 77.828 25.6801 77.4167C25.2687 77.0053 24.7108 76.7742 24.129 76.7742ZM4.3871 23.0323C4.3871 12.7511 10.2897 4.3871 17.5484 4.3871C24.8071 4.3871 30.7097 12.7511 30.7097 23.0323C30.7097 33.3134 24.8071 41.6774 17.5484 41.6774C10.2897 41.6774 4.3871 33.3134 4.3871 23.0323ZM15.3548 46.0645H19.7419V76.7742H15.3548V46.0645ZM21.9355 127.226H13.1613V81.1613H21.9355V127.226Z" fill="black"/>
<path d="M133.807 2.1936H127.226C126.644 2.1936 126.086 2.42471 125.675 2.83608C125.263 3.24745 125.032 3.80539 125.032 4.38715V21.9355H122.839V4.38715C122.839 3.80539 122.608 3.24745 122.196 2.83608C121.785 2.42471 121.227 2.1936 120.645 2.1936H114.065C113.483 2.1936 112.925 2.42471 112.514 2.83608C112.102 3.24745 111.871 3.80539 111.871 4.38715V21.9355H109.677V4.38715C109.677 3.80539 109.446 3.24745 109.035 2.83608C108.624 2.42471 108.066 2.1936 107.484 2.1936H100.903C100.322 2.1936 99.7636 2.42471 99.3522 2.83608C98.9408 3.24745 98.7097 3.80539 98.7097 4.38715V24.1291C98.5873 28.1328 99.5401 32.0962 101.469 35.6068C103.398 39.1174 106.232 42.0469 109.677 44.0904V76.7743C109.096 76.7743 108.538 77.0054 108.126 77.4167C107.715 77.8281 107.484 78.386 107.484 78.9678V116.888C107.11 116.66 106.676 116.55 106.238 116.571C105.801 116.592 105.38 116.743 105.029 117.006C83.1172 133.557 52.8829 133.557 30.971 117.006C30.5054 116.655 29.9195 116.503 29.3421 116.584C28.7647 116.665 28.2431 116.972 27.8918 117.437C27.1614 118.407 27.3542 119.785 28.3234 120.516C51.7316 138.199 84.0179 138.253 107.484 120.645V129.419C107.484 130.001 107.715 130.559 108.126 130.97C108.538 131.382 109.096 131.613 109.677 131.613H122.839C123.421 131.613 123.978 131.382 124.39 130.97C124.801 130.559 125.032 130.001 125.032 129.419V78.9678C125.032 78.386 124.801 77.8281 124.39 77.4167C123.978 77.0054 123.421 76.7743 122.839 76.7743V45.0931C130.453 42.335 136 33.9787 136 24.1291V4.38715C136 3.80539 135.769 3.24745 135.358 2.83608C134.946 2.42471 134.388 2.1936 133.807 2.1936ZM120.645 127.226H111.871V81.1613H120.645V127.226ZM118.452 46.0646V76.7743H114.065V46.0646H118.452ZM131.613 24.1291C131.613 33.8054 125.217 41.6775 117.355 41.6775C109.493 41.6775 103.097 33.8054 103.097 24.1291V6.5807H105.29V24.1291C105.29 24.7109 105.521 25.2688 105.933 25.6802C106.344 26.0915 106.902 26.3226 107.484 26.3226H114.065C114.646 26.3226 115.204 26.0915 115.616 25.6802C116.027 25.2688 116.258 24.7109 116.258 24.1291V6.5807H118.452V24.1291C118.452 24.7109 118.683 25.2688 119.094 25.6802C119.506 26.0915 120.063 26.3226 120.645 26.3226H127.226C127.808 26.3226 128.366 26.0915 128.777 25.6802C129.188 25.2688 129.419 24.7109 129.419 24.1291V6.5807H131.613V24.1291Z" fill="black"/>
<path d="M68 30.7097C47.4054 30.7097 30.7097 47.4054 30.7097 68C30.7097 88.5947 47.4054 105.29 68 105.29C88.5947 105.29 105.29 88.5947 105.29 68C105.268 47.4152 88.5848 30.7322 68 30.7097ZM68 100.903C49.8284 100.903 35.0968 86.1717 35.0968 68C35.0968 49.8284 49.8284 35.0968 68 35.0968C86.1717 35.0968 100.903 49.8284 100.903 68C100.883 86.1632 86.1632 100.883 68 100.903Z" fill="black"/>
<path d="M70.1935 39.4838C69.6117 39.4838 69.0538 39.715 68.6424 40.1263C68.2311 40.5377 68 41.0956 68 41.6774C68 42.2592 68.2311 42.8171 68.6424 43.2285C69.0538 43.6398 69.6117 43.8709 70.1935 43.8709C82.9029 43.8709 92.129 54.0183 92.129 68C92.129 68.5817 92.3601 69.1397 92.7715 69.551C93.1828 69.9624 93.7408 70.1935 94.3225 70.1935C94.9043 70.1935 95.4622 69.9624 95.8736 69.551C96.285 69.1397 96.5161 68.5817 96.5161 68C96.5161 51.4776 85.4455 39.4838 70.1935 39.4838ZM64.4464 39.6593C64.0469 39.4913 63.6067 39.4453 63.1811 39.5273C62.7556 39.6093 62.3639 39.8155 62.0554 40.12C61.6548 40.5405 61.4277 41.0967 61.4193 41.6774C61.4225 41.9641 61.4822 42.2473 61.5948 42.5109C61.7064 42.7765 61.8621 43.0212 62.0554 43.2348C62.2687 43.4285 62.5135 43.5843 62.7793 43.6955C63.042 43.811 63.3259 43.8707 63.6129 43.8707C63.8998 43.8707 64.1837 43.811 64.4464 43.6955C64.7122 43.5843 64.957 43.4285 65.1703 43.2348C65.3636 43.0212 65.5193 42.7765 65.6309 42.5109C65.7433 42.2472 65.8031 41.9645 65.8064 41.6774C65.7981 41.0967 65.5709 40.5405 65.1703 40.12C64.957 39.9263 64.7122 39.7705 64.4464 39.6593ZM35.7542 15.3548C36.1458 15.354 36.53 15.2487 36.8672 15.0496C54.3169 4.80797 75.6859 3.79894 94.0237 12.3494C94.5497 12.5908 95.1497 12.6146 95.6932 12.4156C96.2366 12.2166 96.6794 11.8109 96.9251 11.2869C97.1708 10.7629 97.1995 10.163 97.0049 9.61796C96.8103 9.07291 96.4082 8.62682 95.8863 8.37687C76.2376 -0.791612 53.3369 0.288162 34.6383 11.2666C34.2209 11.5099 33.8954 11.8842 33.7124 12.3314C33.5294 12.7786 33.4991 13.2737 33.6262 13.7398C33.7539 14.2056 34.0316 14.6163 34.4163 14.9083C34.801 15.2003 35.2713 15.3572 35.7542 15.3548Z" fill="black"/>
</svg>
