<svg width="120" height="120" viewBox="0 0 120 120" fill="none" xmlns="http://www.w3.org/2000/svg">
<path d="M114.342 84.4641C113.922 71.6561 108.992 59.4081 100.422 49.8805C91.8514 40.3529 80.192 34.1579 67.4999 32.3883V28.125C67.4999 27.6277 67.3024 27.1508 66.9508 26.7992C66.5991 26.4475 66.1222 26.25 65.6249 26.25H54.3749C53.8777 26.25 53.4007 26.4475 53.0491 26.7992C52.6975 27.1508 52.4999 27.6277 52.4999 28.125V32.3883C39.8078 34.1579 28.1484 40.3529 19.5784 49.8805C11.0083 59.4081 6.07822 71.6561 5.65775 84.4641C4.51616 84.6898 3.49936 85.3322 2.80513 86.2661C2.11091 87.2 1.7889 88.3588 1.90174 89.517C2.01458 90.6752 2.5542 91.7501 3.41564 92.5325C4.27708 93.3148 5.39874 93.7488 6.56244 93.75H113.437C114.601 93.7488 115.723 93.3148 116.584 92.5325C117.446 91.7501 117.985 90.6752 118.098 89.517C118.211 88.3588 117.889 87.2 117.195 86.2661C116.501 85.3322 115.484 84.6898 114.342 84.4641ZM56.2499 30H63.7499V32.0039C62.5078 31.9195 61.2577 31.8766 59.9999 31.875C58.7421 31.8734 57.4921 31.9164 56.2499 32.0039V30ZM24.2038 50.4516C32.3486 42.2617 43.0665 37.1283 54.5531 35.9156C54.5648 35.9156 54.5742 35.9133 54.5835 35.9133C58.1842 35.5289 61.8156 35.5289 65.4163 35.9133C65.4257 35.9133 65.4351 35.9156 65.4468 35.9156C77.5366 37.225 88.7512 42.8424 97.0399 51.7405C105.329 60.6385 110.138 72.2228 110.587 84.375H9.41244C9.84961 71.5977 15.1389 59.467 24.2038 50.4516ZM113.437 90H6.56244C6.3138 90 6.07534 89.9012 5.89952 89.7254C5.72371 89.5496 5.62494 89.3111 5.62494 89.0625C5.62494 88.8139 5.72371 88.5754 5.89952 88.3996C6.07534 88.2238 6.3138 88.125 6.56244 88.125H113.437C113.686 88.125 113.925 88.2238 114.1 88.3996C114.276 88.5754 114.375 88.8139 114.375 89.0625C114.375 89.3111 114.276 89.5496 114.1 89.7254C113.925 89.9012 113.686 90 113.437 90Z" fill="white"/>
<path d="M20.0812 65.373C20.2943 65.4963 20.5297 65.5765 20.7738 65.6088C21.0179 65.6412 21.266 65.6251 21.5039 65.5616C21.7418 65.4981 21.9648 65.3883 22.1603 65.2386C22.3558 65.0888 22.5198 64.9021 22.6431 64.6889C26.4274 58.1302 31.8725 52.6841 38.4305 48.8986C44.9884 45.1131 52.4278 43.1217 59.9999 43.125C60.4972 43.125 60.9741 42.9275 61.3258 42.5758C61.6774 42.2242 61.8749 41.7473 61.8749 41.25C61.8749 40.7527 61.6774 40.2758 61.3258 39.9242C60.9741 39.5725 60.4972 39.375 59.9999 39.375C51.7701 39.3718 43.6846 41.5361 36.5569 45.6503C29.4292 49.7644 23.5108 55.6832 19.397 62.8111C19.2737 63.0242 19.1936 63.2596 19.1613 63.5037C19.1289 63.7478 19.145 63.9959 19.2085 64.2338C19.272 64.4717 19.3818 64.6947 19.5315 64.8902C19.6813 65.0857 19.868 65.2497 20.0812 65.373Z" fill="white"/>
</svg>
