<svg width="136" height="136" viewBox="0 0 136 136" fill="none" xmlns="http://www.w3.org/2000/svg">
<path d="M129.588 95.7259C129.111 81.2102 123.524 67.3292 113.811 56.5312C104.098 45.7333 90.8844 38.7123 76.5 36.7067V31.875C76.5 31.3114 76.2762 30.7709 75.8776 30.3724C75.4791 29.9739 74.9386 29.75 74.375 29.75H61.625C61.0615 29.75 60.521 29.9739 60.1224 30.3724C59.7239 30.7709 59.5 31.3114 59.5 31.875V36.7067C45.1157 38.7123 31.9017 45.7333 22.1889 56.5312C12.4762 67.3292 6.88876 81.2102 6.41223 95.7259C5.11843 95.9818 3.96605 96.7098 3.17927 97.7682C2.39248 98.8267 2.02753 100.14 2.15542 101.453C2.2833 102.765 2.89487 103.983 3.87117 104.87C4.84747 105.757 6.11868 106.249 7.43754 106.25H128.563C129.881 106.249 131.153 105.757 132.129 104.87C133.105 103.983 133.717 102.765 133.845 101.453C133.973 100.14 133.608 98.8267 132.821 97.7682C132.034 96.7098 130.882 95.9818 129.588 95.7259ZM63.75 34H72.25V36.2711C70.8422 36.1755 69.4256 36.1268 68 36.125C66.5745 36.1232 65.1579 36.1719 63.75 36.2711V34ZM27.4311 57.1784C36.6619 47.8966 48.8088 42.0788 61.8269 40.7044C61.8402 40.7044 61.8508 40.7017 61.8614 40.7017C65.9422 40.2661 70.0578 40.2661 74.1386 40.7017C74.1493 40.7017 74.1599 40.7044 74.1732 40.7044C87.875 42.1884 100.585 48.5547 109.979 58.6392C119.373 68.7237 124.823 81.8525 125.333 95.625H10.6675C11.163 81.144 17.1575 67.3959 27.4311 57.1784ZM128.563 102H7.43754C7.15575 102 6.8855 101.888 6.68624 101.689C6.48698 101.49 6.37504 101.219 6.37504 100.938C6.37504 100.656 6.48698 100.385 6.68624 100.186C6.8855 99.9869 7.15575 99.875 7.43754 99.875H128.563C128.844 99.875 129.115 99.9869 129.314 100.186C129.513 100.385 129.625 100.656 129.625 100.938C129.625 101.219 129.513 101.49 129.314 101.689C129.115 101.888 128.844 102 128.563 102Z" fill="black"/>
<path d="M22.7587 74.0895C23.0003 74.2292 23.267 74.32 23.5437 74.3567C23.8203 74.3933 24.1015 74.3751 24.3711 74.3031C24.6407 74.2311 24.8935 74.1067 25.1151 73.937C25.3366 73.7673 25.5226 73.5557 25.6623 73.3141C29.9511 65.881 36.1223 59.7086 43.5546 55.4184C50.987 51.1281 59.4183 48.8713 68 48.875C68.5636 48.875 69.1041 48.6511 69.5026 48.2526C69.9011 47.8541 70.125 47.3136 70.125 46.75C70.125 46.1864 69.9011 45.6459 69.5026 45.2474C69.1041 44.8489 68.5636 44.625 68 44.625C58.6729 44.6214 49.5093 47.0743 41.4312 51.737C33.3532 56.3996 26.6456 63.1076 21.9834 71.1859C21.8436 71.4275 21.7528 71.6942 21.7162 71.9708C21.6795 72.2475 21.6977 72.5286 21.7697 72.7983C21.8417 73.0679 21.9661 73.3207 22.1358 73.5422C22.3055 73.7638 22.5172 73.9497 22.7587 74.0895Z" fill="black"/>
</svg>
