<svg width="120" height="120" viewBox="0 0 120 120" fill="none" xmlns="http://www.w3.org/2000/svg">
<g clip-path="url(#clip0_74_19)">
<path d="M118.125 50.625H116.25V46.875C116.25 46.3777 116.052 45.9008 115.701 45.5492C115.349 45.1975 114.872 45 114.375 45H106.875V43.125H108.75C109.247 43.125 109.724 42.9275 110.076 42.5758C110.427 42.2242 110.625 41.7473 110.625 41.25V30C110.62 25.5261 108.84 21.2368 105.677 18.0733C102.513 14.9097 98.2239 13.1301 93.75 13.125V9.375C93.75 8.87772 93.5525 8.40081 93.2008 8.04918C92.8492 7.69754 92.3723 7.5 91.875 7.5C91.3777 7.5 90.9008 7.69754 90.5492 8.04918C90.1975 8.40081 90 8.87772 90 9.375V13.125C85.5261 13.1301 81.2368 14.9097 78.0733 18.0733C74.9097 21.2368 73.1301 25.5261 73.125 30V41.25C73.125 41.7473 73.3225 42.2242 73.6742 42.5758C74.0258 42.9275 74.5027 43.125 75 43.125H76.875V45H69.375V41.25C69.375 40.7527 69.1775 40.2758 68.8258 39.9242C68.4742 39.5725 67.9973 39.375 67.5 39.375H63.6422C63.1769 35.2521 61.2108 31.4445 58.1185 28.6782C55.0262 25.9118 51.0241 24.3801 46.875 24.375V20.625C46.875 20.1277 46.6775 19.6508 46.3258 19.2992C45.9742 18.9475 45.4973 18.75 45 18.75C44.5027 18.75 44.0258 18.9475 43.6742 19.2992C43.3225 19.6508 43.125 20.1277 43.125 20.625V24.375C38.9759 24.3801 34.9738 25.9118 31.8815 28.6782C28.7892 31.4445 26.8231 35.2521 26.3578 39.375H22.5C22.0027 39.375 21.5258 39.5725 21.1742 39.9242C20.8225 40.2758 20.625 40.7527 20.625 41.25V45H16.875C16.3777 45 15.9008 45.1975 15.5492 45.5492C15.1975 45.9008 15 46.3777 15 46.875V50.625H11.25V20.625C11.25 20.1277 11.0525 19.6508 10.7008 19.2992C10.3492 18.9475 9.87228 18.75 9.375 18.75H1.875C1.37772 18.75 0.900806 18.9475 0.549175 19.2992C0.197544 19.6508 0 20.1277 0 20.625C0 21.1223 0.197544 21.5992 0.549175 21.9508C0.900806 22.3025 1.37772 22.5 1.875 22.5H7.5V88.125C7.50316 91.1077 8.68944 93.9674 10.7985 96.0765C12.9076 98.1856 15.7673 99.3718 18.75 99.375H18.7547C17.7085 100.768 17.0709 102.424 16.9134 104.158C16.7559 105.893 17.0847 107.637 17.863 109.195C18.6413 110.754 19.8382 112.064 21.3196 112.98C22.801 113.896 24.5083 114.381 26.25 114.381C27.9917 114.381 29.699 113.896 31.1804 112.98C32.6618 112.064 33.8587 110.754 34.637 109.195C35.4153 107.637 35.7441 105.893 35.5866 104.158C35.4291 102.424 34.7915 100.768 33.7453 99.375H93.7547C92.7085 100.768 92.0709 102.424 91.9134 104.158C91.7559 105.893 92.0847 107.637 92.863 109.195C93.6413 110.754 94.8382 112.064 96.3196 112.98C97.801 113.896 99.5083 114.381 101.25 114.381C102.992 114.381 104.699 113.896 106.18 112.98C107.662 112.064 108.859 110.754 109.637 109.195C110.415 107.637 110.744 105.893 110.587 104.158C110.429 102.424 109.792 100.768 108.745 99.375H108.75C111.733 99.3718 114.592 98.1856 116.701 96.0765C118.811 93.9674 119.997 91.1077 120 88.125V52.5C120 52.0027 119.802 51.5258 119.451 51.1742C119.099 50.8225 118.622 50.625 118.125 50.625ZM90 16.875H93.75C96.9051 16.8791 99.9535 18.0178 102.339 20.0832C104.724 22.1486 106.286 25.0029 106.741 28.125H77.0086C77.4636 25.0029 79.0263 22.1486 81.4114 20.0832C83.7965 18.0178 86.8449 16.8791 90 16.875ZM76.875 31.875H106.875V39.375H76.875V31.875ZM103.125 43.125V45H80.625V43.125H103.125ZM43.125 28.125H46.875C50.0301 28.1291 53.0785 29.2678 55.4636 31.3332C57.8487 33.3986 59.4114 36.2529 59.8664 39.375H30.1336C30.5886 36.2529 32.1513 33.3986 34.5364 31.3332C36.9215 29.2678 39.9699 28.1291 43.125 28.125ZM24.375 43.125H65.625V45H24.375V43.125ZM18.75 48.75H112.5V50.625H18.75V48.75ZM26.25 110.625C25.1375 110.625 24.0499 110.295 23.1249 109.677C22.1999 109.059 21.4789 108.18 21.0532 107.153C20.6274 106.125 20.516 104.994 20.7331 103.903C20.9501 102.811 21.4859 101.809 22.2725 101.023C23.0592 100.236 24.0615 99.7001 25.1526 99.4831C26.2438 99.266 27.3748 99.3774 28.4026 99.8032C29.4304 100.229 30.3089 100.95 30.927 101.875C31.5451 102.8 31.875 103.887 31.875 105C31.873 106.491 31.2797 107.921 30.2253 108.975C29.1708 110.03 27.7412 110.623 26.25 110.625ZM101.25 110.625C100.137 110.625 99.0499 110.295 98.1249 109.677C97.1999 109.059 96.4789 108.18 96.0532 107.153C95.6274 106.125 95.516 104.994 95.7331 103.903C95.9501 102.811 96.4859 101.809 97.2725 101.023C98.0592 100.236 99.0615 99.7001 100.153 99.4831C101.244 99.266 102.375 99.3774 103.403 99.8032C104.43 100.229 105.309 100.95 105.927 101.875C106.545 102.8 106.875 103.887 106.875 105C106.873 106.491 106.28 107.921 105.225 108.975C104.171 110.03 102.741 110.623 101.25 110.625ZM116.25 88.125C116.247 90.1133 115.456 92.0195 114.05 93.4254C112.644 94.8314 110.738 95.6224 108.75 95.625H18.75C16.7616 95.6228 14.8552 94.8319 13.4492 93.4258C12.0431 92.0198 11.2522 90.1134 11.25 88.125V54.375H116.25V88.125Z" fill="white"/>
<path d="M26.25 106.875C27.2855 106.875 28.125 106.036 28.125 105C28.125 103.964 27.2855 103.125 26.25 103.125C25.2145 103.125 24.375 103.964 24.375 105C24.375 106.036 25.2145 106.875 26.25 106.875Z" fill="white"/>
<path d="M101.25 106.875C102.286 106.875 103.125 106.036 103.125 105C103.125 103.964 102.286 103.125 101.25 103.125C100.214 103.125 99.375 103.964 99.375 105C99.375 106.036 100.214 106.875 101.25 106.875Z" fill="white"/>
</g>
<defs>
<clipPath id="clip0_74_19">
<rect width="120" height="120" fill="white"/>
</clipPath>
</defs>
</svg>
