<svg width="136" height="136" viewBox="0 0 136 136" fill="none" xmlns="http://www.w3.org/2000/svg">
<g clip-path="url(#clip0_16_398)">
<path d="M133.875 57.375H131.75V53.125C131.75 52.5614 131.526 52.0209 131.128 51.6224C130.729 51.2239 130.189 51 129.625 51H121.125V48.875H123.25C123.814 48.875 124.354 48.6511 124.753 48.2526C125.151 47.8541 125.375 47.3136 125.375 46.75V34C125.369 28.9295 123.352 24.0684 119.767 20.483C116.182 16.8977 111.32 14.8808 106.25 14.875V10.625C106.25 10.0614 106.026 9.52091 105.628 9.1224C105.229 8.72388 104.689 8.5 104.125 8.5C103.561 8.5 103.021 8.72388 102.622 9.1224C102.224 9.52091 102 10.0614 102 10.625V14.875C96.9295 14.8808 92.0684 16.8977 88.483 20.483C84.8977 24.0684 82.8808 28.9295 82.875 34V46.75C82.875 47.3136 83.0989 47.8541 83.4974 48.2526C83.8959 48.6511 84.4364 48.875 85 48.875H87.125V51H78.625V46.75C78.625 46.1864 78.4011 45.6459 78.0026 45.2474C77.6041 44.8489 77.0636 44.625 76.5 44.625H72.1278C71.6005 39.9524 69.3722 35.6371 65.8676 32.5019C62.363 29.3667 57.8273 27.6308 53.125 27.625V23.375C53.125 22.8114 52.9011 22.2709 52.5026 21.8724C52.1041 21.4739 51.5636 21.25 51 21.25C50.4364 21.25 49.8959 21.4739 49.4974 21.8724C49.0989 22.2709 48.875 22.8114 48.875 23.375V27.625C44.1727 27.6308 39.637 29.3667 36.1324 32.5019C32.6278 35.6371 30.3995 39.9524 29.8722 44.625H25.5C24.9364 44.625 24.3959 44.8489 23.9974 45.2474C23.5989 45.6459 23.375 46.1864 23.375 46.75V51H19.125C18.5614 51 18.0209 51.2239 17.6224 51.6224C17.2239 52.0209 17 52.5614 17 53.125V57.375H12.75V23.375C12.75 22.8114 12.5261 22.2709 12.1276 21.8724C11.7291 21.4739 11.1886 21.25 10.625 21.25H2.125C1.56141 21.25 1.02091 21.4739 0.622398 21.8724C0.223883 22.2709 0 22.8114 0 23.375C0 23.9386 0.223883 24.4791 0.622398 24.8776C1.02091 25.2761 1.56141 25.5 2.125 25.5H8.5V99.875C8.50359 103.255 9.84804 106.496 12.2383 108.887C14.6287 111.277 17.8696 112.621 21.25 112.625H21.2553C20.0696 114.203 19.347 116.08 19.1685 118.046C18.99 120.012 19.3627 121.989 20.2447 123.755C21.1268 125.521 22.4833 127.006 24.1622 128.044C25.8411 129.082 27.7761 129.632 29.75 129.632C31.7239 129.632 33.6589 129.082 35.3378 128.044C37.0167 127.006 38.3732 125.521 39.2553 123.755C40.1373 121.989 40.51 120.012 40.3315 118.046C40.153 116.08 39.4304 114.203 38.2447 112.625H106.255C105.07 114.203 104.347 116.08 104.169 118.046C103.99 120.012 104.363 121.989 105.245 123.755C106.127 125.521 107.483 127.006 109.162 128.044C110.841 129.082 112.776 129.632 114.75 129.632C116.724 129.632 118.659 129.082 120.338 128.044C122.017 127.006 123.373 125.521 124.255 123.755C125.137 121.989 125.51 120.012 125.331 118.046C125.153 116.08 124.43 114.203 123.245 112.625H123.25C126.63 112.621 129.871 111.277 132.262 108.887C134.652 106.496 135.996 103.255 136 99.875V59.5C136 58.9364 135.776 58.3959 135.378 57.9974C134.979 57.5989 134.439 57.375 133.875 57.375ZM102 19.125H106.25C109.826 19.1296 113.281 20.4201 115.984 22.7609C118.687 25.1017 120.458 28.3366 120.974 31.875H87.2764C87.7921 28.3366 89.5632 25.1017 92.2663 22.7609C94.9694 20.4201 98.4242 19.1296 102 19.125ZM87.125 36.125H121.125V44.625H87.125V36.125ZM116.875 48.875V51H91.375V48.875H116.875ZM48.875 31.875H53.125C56.7008 31.8796 60.1556 33.1701 62.8587 35.5109C65.5618 37.8517 67.3329 41.0866 67.8486 44.625H34.1514C34.6671 41.0866 36.4382 37.8517 39.1413 35.5109C41.8444 33.1701 45.2992 31.8796 48.875 31.875ZM27.625 48.875H74.375V51H27.625V48.875ZM21.25 55.25H127.5V57.375H21.25V55.25ZM29.75 125.375C28.4891 125.375 27.2566 125.001 26.2082 124.301C25.1599 123.6 24.3428 122.604 23.8603 121.44C23.3778 120.275 23.2515 118.993 23.4975 117.756C23.7435 116.52 24.3506 115.384 25.2422 114.492C26.1338 113.601 27.2697 112.993 28.5063 112.747C29.7429 112.502 31.0247 112.628 32.1896 113.11C33.3545 113.593 34.3501 114.41 35.0506 115.458C35.7511 116.507 36.125 117.739 36.125 119C36.1227 120.69 35.4504 122.31 34.2553 123.505C33.0603 124.7 31.4401 125.373 29.75 125.375ZM114.75 125.375C113.489 125.375 112.257 125.001 111.208 124.301C110.16 123.6 109.343 122.604 108.86 121.44C108.378 120.275 108.252 118.993 108.497 117.756C108.743 116.52 109.351 115.384 110.242 114.492C111.134 113.601 112.27 112.993 113.506 112.747C114.743 112.502 116.025 112.628 117.19 113.11C118.354 113.593 119.35 114.41 120.051 115.458C120.751 116.507 121.125 117.739 121.125 119C121.123 120.69 120.45 122.31 119.255 123.505C118.06 124.7 116.44 125.373 114.75 125.375ZM131.75 99.875C131.747 102.128 130.851 104.289 129.257 105.882C127.664 107.476 125.503 108.372 123.25 108.375H21.25C18.9964 108.372 16.8359 107.476 15.2424 105.883C13.6489 104.289 12.7525 102.129 12.75 99.875V61.625H131.75V99.875Z" fill="black"/>
<path d="M29.75 121.125C30.9236 121.125 31.875 120.174 31.875 119C31.875 117.826 30.9236 116.875 29.75 116.875C28.5764 116.875 27.625 117.826 27.625 119C27.625 120.174 28.5764 121.125 29.75 121.125Z" fill="black"/>
<path d="M114.75 121.125C115.924 121.125 116.875 120.174 116.875 119C116.875 117.826 115.924 116.875 114.75 116.875C113.576 116.875 112.625 117.826 112.625 119C112.625 120.174 113.576 121.125 114.75 121.125Z" fill="black"/>
</g>
<defs>
<clipPath id="clip0_16_398">
<rect width="136" height="136" fill="white"/>
</clipPath>
</defs>
</svg>
