<svg width="136" height="136" viewBox="0 0 136 136" fill="none" xmlns="http://www.w3.org/2000/svg">
<g clip-path="url(#clip0_16_397)">
<path d="M133.875 104.125H67.0809C73.5834 101.703 79.1908 97.3526 83.1528 91.6561C87.1147 85.9596 89.242 79.1888 89.25 72.2499V61.6249C89.25 61.0614 89.0261 60.5208 88.6276 60.1223C88.2291 59.7238 87.6886 59.4999 87.125 59.4999H19.125C18.5614 59.4999 18.0209 59.7238 17.6224 60.1223C17.2239 60.5208 17 61.0614 17 61.6249V72.2499C17.008 79.1888 19.1353 85.9596 23.0972 91.6561C27.0592 97.3526 32.6666 101.703 39.1691 104.125H2.125C1.56141 104.125 1.02091 104.349 0.622398 104.747C0.223883 105.146 0 105.686 0 106.25L0 109.437C0.00217953 111.409 0.786471 113.3 2.1808 114.694C3.57513 116.088 5.46562 116.873 7.4375 116.875H128.562C130.534 116.873 132.425 116.088 133.819 114.694C135.214 113.3 135.998 111.409 136 109.437V106.25C136 105.686 135.776 105.146 135.378 104.747C134.979 104.349 134.439 104.125 133.875 104.125ZM21.25 63.7499H85V67.9999H21.25V63.7499ZM21.25 72.2499H85C84.9913 80.1375 81.8542 87.6995 76.2769 93.2768C70.6995 98.8541 63.1375 101.991 55.25 102H51C43.1125 101.991 35.5505 98.8541 29.9731 93.2768C24.3958 87.6995 21.2586 80.1375 21.25 72.2499ZM131.75 109.437C131.749 110.283 131.413 111.093 130.816 111.691C130.218 112.288 129.408 112.624 128.562 112.625H7.4375C6.59234 112.624 5.78199 112.288 5.18437 111.691C4.58675 111.093 4.2507 110.283 4.25 109.437V108.375H131.75V109.437ZM49.4267 49.8126C50.0382 51.6073 51.0286 53.2494 52.3308 54.6276C52.7276 55.0241 53.2655 55.2472 53.8265 55.2479C54.3876 55.2486 54.926 55.0268 55.3238 54.6313C55.7227 54.235 55.9487 53.697 55.9525 53.1347C55.9562 52.5724 55.7375 52.0314 55.344 51.6297C54.8497 51.125 50.6512 46.5621 55.3361 41.877C59.3967 37.8162 59.1565 33.6862 58.2401 30.9368C57.6286 29.1421 56.6382 27.4999 55.3361 26.1218C54.9386 25.7222 54.3987 25.4969 53.8351 25.4954C53.2715 25.4939 52.7304 25.7163 52.3308 26.1138C51.9312 26.5113 51.7059 27.0512 51.7044 27.6148C51.7029 28.1784 51.9253 28.7195 52.3228 29.1191C52.8171 29.6238 57.0156 34.1867 52.3308 38.8718C48.2702 42.9332 48.5103 47.0631 49.4267 49.8126ZM33.8433 49.8126C34.4548 51.6073 35.4452 53.2494 36.7474 54.6276C37.1442 55.0241 37.6821 55.2472 38.2431 55.2479C38.8041 55.2486 39.3426 55.0268 39.7404 54.6313C40.1393 54.235 40.3653 53.697 40.369 53.1347C40.3728 52.5724 40.1541 52.0314 39.7606 51.6297C39.2663 51.125 35.0678 46.5621 39.7526 41.877C43.8132 37.8162 43.5731 33.6862 42.6567 30.9368C42.0452 29.1421 41.0548 27.4999 39.7526 26.1218C39.3552 25.7222 38.8153 25.4969 38.2516 25.4954C37.688 25.4939 37.1469 25.7163 36.7474 26.1138C36.3478 26.5113 36.1225 27.0512 36.121 27.6148C36.1195 28.1784 36.3419 28.7195 36.7394 29.1191C37.2337 29.6238 41.4322 34.1867 36.7474 38.8718C32.6868 42.9332 32.9269 47.0631 33.8433 49.8126ZM65.0099 49.8126C65.6214 51.6073 66.6118 53.2494 67.9139 54.6276C68.3108 55.0241 68.8487 55.2472 69.4097 55.2479C69.9707 55.2486 70.5091 55.0268 70.907 54.6313C71.3059 54.235 71.5318 53.697 71.5356 53.1347C71.5394 52.5724 71.3207 52.0314 70.9272 51.6297C70.4329 51.125 66.2344 46.5621 70.9192 41.877C74.9798 37.8162 74.7397 33.6862 73.8233 30.9368C73.2117 29.1423 72.2213 27.5003 70.9192 26.1223C70.5218 25.7227 69.9818 25.4974 69.4182 25.4959C68.8546 25.4944 68.3135 25.7169 67.9139 26.1143C67.5144 26.5118 67.289 27.0517 67.2875 27.6153C67.286 28.1789 67.5085 28.72 67.906 29.1196C68.4003 29.6243 72.5988 34.1872 67.9139 38.8723C63.8533 42.9332 64.0935 47.0631 65.0099 49.8126Z" fill="black"/>
<path d="M114.75 42.4947C116.069 41.506 117.14 40.2236 117.878 38.7492C118.616 37.2747 119 35.6487 119 34V29.75C119 26.9321 117.881 24.2296 115.888 22.237C113.895 20.2444 111.193 19.125 108.375 19.125C105.557 19.125 102.855 20.2444 100.862 22.237C98.8694 24.2296 97.75 26.9321 97.75 29.75V34C97.7501 35.6487 98.1343 37.2747 98.872 38.7492C99.6097 40.2236 100.681 41.506 102 42.4947V55.25C101.436 55.25 100.896 55.4739 100.497 55.8724C100.099 56.2709 99.875 56.8114 99.875 57.375V93.5C99.875 95.7543 100.771 97.9163 102.365 99.5104C103.959 101.104 106.121 102 108.375 102C110.629 102 112.791 101.104 114.385 99.5104C115.979 97.9163 116.875 95.7543 116.875 93.5V57.375C116.875 56.8114 116.651 56.2709 116.253 55.8724C115.854 55.4739 115.314 55.25 114.75 55.25V42.4947ZM112.625 93.5C112.625 94.6272 112.177 95.7082 111.38 96.5052C110.583 97.3022 109.502 97.75 108.375 97.75C107.248 97.75 106.167 97.3022 105.37 96.5052C104.573 95.7082 104.125 94.6272 104.125 93.5V59.5H112.625V93.5ZM106.25 55.25V44.625H110.5V55.25H106.25ZM108.375 40.375C106.685 40.3728 105.065 39.7004 103.87 38.5053C102.675 37.3103 102.002 35.6901 102 34V29.75C102 28.0592 102.672 26.4377 103.867 25.2422C105.063 24.0466 106.684 23.375 108.375 23.375C110.066 23.375 111.687 24.0466 112.883 25.2422C114.078 26.4377 114.75 28.0592 114.75 29.75V34C114.748 35.6901 114.075 37.3103 112.88 38.5053C111.685 39.7004 110.065 40.3728 108.375 40.375Z" fill="black"/>
</g>
<defs>
<clipPath id="clip0_16_397">
<rect width="136" height="136" fill="white"/>
</clipPath>
</defs>
</svg>
