<svg width="120" height="120" viewBox="0 0 120 120" fill="none" xmlns="http://www.w3.org/2000/svg">
<g clip-path="url(#clip0_74_26)">
<path d="M118.125 91.8749H59.1891C64.9265 89.7379 69.8743 85.8993 73.3701 80.873C76.8659 75.8466 78.743 69.8724 78.75 63.7499V54.3749C78.75 53.8776 78.5525 53.4007 78.2008 53.0491C77.8492 52.6974 77.3723 52.4999 76.875 52.4999H16.875C16.3777 52.4999 15.9008 52.6974 15.5492 53.0491C15.1975 53.4007 15 53.8776 15 54.3749V63.7499C15.007 69.8724 16.8841 75.8466 20.3799 80.873C23.8757 85.8993 28.8235 89.7379 34.5609 91.8749H1.875C1.37772 91.8749 0.900806 92.0724 0.549175 92.4241C0.197544 92.7757 0 93.2526 0 93.7499L0 96.5624C0.00192312 98.3023 0.693945 99.9704 1.92424 101.201C3.15453 102.431 4.82261 103.123 6.5625 103.125H113.438C115.177 103.123 116.845 102.431 118.076 101.201C119.306 99.9704 119.998 98.3023 120 96.5624V93.7499C120 93.2526 119.802 92.7757 119.451 92.4241C119.099 92.0724 118.622 91.8749 118.125 91.8749ZM18.75 56.2499H75V59.9999H18.75V56.2499ZM18.75 63.7499H75C74.9924 70.7095 72.2243 77.3818 67.3031 82.303C62.3819 87.2242 55.7096 89.9923 48.75 89.9999H45C38.0404 89.9923 31.3681 87.2242 26.4469 82.303C21.5257 77.3818 18.7576 70.7095 18.75 63.7499ZM116.25 96.5624C116.249 97.3081 115.953 98.0231 115.426 98.5504C114.898 99.0778 114.183 99.3743 113.438 99.3749H6.5625C5.81677 99.3743 5.10176 99.0778 4.57445 98.5504C4.04714 98.0231 3.75062 97.3081 3.75 96.5624V95.6249H116.25V96.5624ZM43.6118 43.9522C44.1514 45.5358 45.0253 46.9847 46.1742 48.2007C46.5244 48.5506 46.999 48.7474 47.494 48.7481C47.989 48.7487 48.4641 48.553 48.8152 48.204C49.1671 47.8543 49.3665 47.3796 49.3698 46.8835C49.3732 46.3873 49.1802 45.91 48.833 45.5556C48.3968 45.1103 44.6923 41.0842 48.8259 36.9503C52.4088 33.3672 52.197 29.7231 51.3884 27.2971C50.8488 25.7135 49.9749 24.2646 48.8259 23.0486C48.4752 22.696 47.9988 22.4972 47.5015 22.4959C47.0042 22.4945 46.5268 22.6908 46.1742 23.0415C45.8216 23.3922 45.6228 23.8686 45.6215 24.3659C45.6202 24.8632 45.8165 25.3407 46.1672 25.6932C46.6034 26.1386 50.3079 30.1647 46.1742 34.2986C42.5913 37.8822 42.8032 41.5262 43.6118 43.9522ZM29.8617 43.9522C30.4013 45.5358 31.2752 46.9847 32.4241 48.2007C32.7743 48.5506 33.2489 48.7474 33.7439 48.7481C34.239 48.7487 34.714 48.553 35.0651 48.204C35.417 47.8543 35.6164 47.3796 35.6197 46.8835C35.6231 46.3873 35.4301 45.91 35.0829 45.5556C34.6467 45.1103 30.9422 41.0842 35.0759 36.9503C38.6587 33.3672 38.4469 29.7231 37.6383 27.2971C37.0987 25.7135 36.2248 24.2646 35.0759 23.0486C34.7252 22.696 34.2487 22.4972 33.7515 22.4959C33.2542 22.4945 32.7767 22.6908 32.4241 23.0415C32.0716 23.3922 31.8728 23.8686 31.8714 24.3659C31.8701 24.8632 32.0664 25.3407 32.4171 25.6932C32.8533 26.1386 36.5578 30.1647 32.4241 34.2986C28.8413 37.8822 29.0531 41.5262 29.8617 43.9522ZM57.3616 43.9522C57.9012 45.5358 58.7751 46.9847 59.9241 48.2007C60.2742 48.5506 60.7488 48.7474 61.2439 48.7481C61.7389 48.7487 62.214 48.553 62.565 48.204C62.9169 47.8543 63.1163 47.3796 63.1197 46.8835C63.123 46.3873 62.93 45.91 62.5828 45.5556C62.1466 45.1103 58.4421 41.0842 62.5758 36.9503C66.1587 33.3672 65.9468 29.7231 65.1382 27.2971C64.5986 25.7137 63.7247 24.2649 62.5758 23.049C62.2251 22.6965 61.7487 22.4976 61.2514 22.4963C60.7541 22.495 60.2766 22.6913 59.9241 23.042C59.5715 23.3927 59.3727 23.8691 59.3714 24.3664C59.37 24.8637 59.5663 25.3411 59.917 25.6937C60.3532 26.139 64.0577 30.1651 59.9241 34.299C56.3412 37.8822 56.553 41.5262 57.3616 43.9522Z" fill="white"/>
<path d="M101.25 37.4953C102.414 36.6229 103.359 35.4914 104.01 34.1904C104.661 32.8895 105 31.4547 105 30V26.25C105 23.7636 104.012 21.379 102.254 19.6209C100.496 17.8627 98.1114 16.875 95.625 16.875C93.1386 16.875 90.754 17.8627 88.9959 19.6209C87.2377 21.379 86.25 23.7636 86.25 26.25V30C86.2501 31.4547 86.5891 32.8895 87.24 34.1904C87.8909 35.4914 88.8359 36.6229 90 37.4953V48.75C89.5027 48.75 89.0258 48.9475 88.6742 49.2992C88.3225 49.6508 88.125 50.1277 88.125 50.625V82.5C88.125 84.4891 88.9152 86.3968 90.3217 87.8033C91.7282 89.2098 93.6359 90 95.625 90C97.6141 90 99.5218 89.2098 100.928 87.8033C102.335 86.3968 103.125 84.4891 103.125 82.5V50.625C103.125 50.1277 102.927 49.6508 102.576 49.2992C102.224 48.9475 101.747 48.75 101.25 48.75V37.4953ZM99.375 82.5C99.375 83.4946 98.9799 84.4484 98.2767 85.1517C97.5734 85.8549 96.6196 86.25 95.625 86.25C94.6304 86.25 93.6766 85.8549 92.9733 85.1517C92.2701 84.4484 91.875 83.4946 91.875 82.5V52.5H99.375V82.5ZM93.75 48.75V39.375H97.5V48.75H93.75ZM95.625 35.625C94.1338 35.623 92.7042 35.0297 91.6497 33.9753C90.5953 32.9208 90.002 31.4912 90 30V26.25C90 24.7582 90.5926 23.3274 91.6475 22.2725C92.7024 21.2176 94.1332 20.625 95.625 20.625C97.1168 20.625 98.5476 21.2176 99.6025 22.2725C100.657 23.3274 101.25 24.7582 101.25 26.25V30C101.248 31.4912 100.655 32.9208 99.6003 33.9753C98.5458 35.0297 97.1162 35.623 95.625 35.625Z" fill="white"/>
</g>
<defs>
<clipPath id="clip0_74_26">
<rect width="120" height="120" fill="white"/>
</clipPath>
</defs>
</svg>
