<svg width="62" height="63" viewBox="0 0 62 63" fill="none" xmlns="http://www.w3.org/2000/svg">
<path d="M59.0768 44.3436C58.8596 37.6195 56.3123 31.1892 51.8845 26.1873C47.4566 21.1853 41.4326 17.9329 34.875 17.0038V14.7656C34.875 14.5046 34.7729 14.2542 34.5913 14.0696C34.4096 13.885 34.1632 13.7812 33.9063 13.7812H28.0938C27.8368 13.7812 27.5904 13.885 27.4087 14.0696C27.2271 14.2542 27.125 14.5046 27.125 14.7656V17.0038C20.5674 17.9329 14.5434 21.1853 10.1155 26.1873C5.68767 31.1892 3.14046 37.6195 2.92322 44.3436C2.33339 44.4622 1.80805 44.7994 1.44936 45.2897C1.09068 45.78 0.924309 46.3884 0.982609 46.9964C1.04091 47.6045 1.31971 48.1688 1.76479 48.5795C2.20987 48.9903 2.78939 49.2181 3.39064 49.2188H58.6094C59.2106 49.2181 59.7902 48.9903 60.2352 48.5795C60.6803 48.1688 60.9591 47.6045 61.0174 46.9964C61.0757 46.3884 60.9093 45.78 60.5507 45.2897C60.192 44.7994 59.6666 44.4622 59.0768 44.3436ZM29.0625 15.75H32.9375V16.8021C32.2957 16.7578 31.6499 16.7352 31 16.7344C30.3501 16.7336 29.7043 16.7561 29.0625 16.8021V15.75ZM12.5054 26.4871C16.7135 22.1874 22.2511 19.4924 28.1858 18.8557C28.1918 18.8557 28.1967 18.8545 28.2015 18.8545C30.0619 18.6527 31.9381 18.6527 33.7985 18.8545C33.8033 18.8545 33.8082 18.8557 33.8142 18.8557C40.0606 19.5431 45.8548 22.4922 50.1373 27.1637C54.4198 31.8352 56.9044 37.917 57.1369 44.2969H4.86314C5.08901 37.5888 7.82179 31.2202 12.5054 26.4871ZM58.6094 47.25H3.39064C3.26217 47.25 3.13897 47.1981 3.04813 47.1058C2.95729 47.0135 2.90626 46.8883 2.90626 46.7578C2.90626 46.6273 2.95729 46.5021 3.04813 46.4098C3.13897 46.3175 3.26217 46.2656 3.39064 46.2656H58.6094C58.7378 46.2656 58.8611 46.3175 58.9519 46.4098C59.0427 46.5021 59.0938 46.6273 59.0938 46.7578C59.0938 46.8883 59.0427 47.0135 58.9519 47.1058C58.8611 47.1981 58.7378 47.25 58.6094 47.25Z" fill="#E8C300"/>
<path d="M10.3753 34.3208C10.4854 34.3856 10.607 34.4276 10.7331 34.4446C10.8592 34.4616 10.9874 34.4532 11.1103 34.4198C11.2333 34.3865 11.3485 34.3289 11.4495 34.2502C11.5505 34.1716 11.6353 34.0736 11.699 33.9617C13.6542 30.5184 16.4675 27.6592 19.8558 25.6718C23.244 23.6844 27.0877 22.6389 31 22.6406C31.2569 22.6406 31.5033 22.5369 31.685 22.3523C31.8667 22.1677 31.9687 21.9173 31.9687 21.6563C31.9687 21.3952 31.8667 21.1448 31.685 20.9602C31.5033 20.7756 31.2569 20.6719 31 20.6719C26.7479 20.6702 22.5704 21.8065 18.8877 23.9664C15.2051 26.1263 12.1472 29.2337 10.0218 32.9758C9.95811 33.0877 9.91671 33.2113 9.9 33.3394C9.88328 33.4676 9.89158 33.5978 9.9244 33.7227C9.95722 33.8476 10.0139 33.9647 10.0913 34.0674C10.1687 34.17 10.2652 34.2561 10.3753 34.3208Z" fill="#E8C300"/>
</svg>
